<!DOCTYPE svg PUBLIC "-//W3C//DTD SVG 1.1//EN" "http://www.w3.org/Graphics/SVG/1.1/DTD/svg11.dtd">
<!-- Uploaded to: SVG Repo, www.svgrepo.com, Transformed by: SVG Repo Mixer Tools -->
<svg fill="#000000" version="1.1" id="Capa_1" xmlns="http://www.w3.org/2000/svg" xmlns:xlink="http://www.w3.org/1999/xlink" width="800px" height="800px" viewBox="-48.47 -48.47 581.65 581.65" xml:space="preserve" transform="matrix(1, 0, 0, 1, 0, 0)">
<g id="SVGRepo_bgCarrier" stroke-width="0"/>
<g id="SVGRepo_tracerCarrier" stroke-linecap="round" stroke-linejoin="round" stroke="#fffafa" stroke-width="24.23535"> <g> <path d="M418.475,245.171c14.644-4.42,28.075-12.416,38.961-23.291c36.362-36.367,36.362-95.527,0-131.889 c-36.356-36.367-95.526-36.365-131.885,0c-10.877,10.872-18.902,24.328-23.316,38.962c-4.804-0.654-9.851,0.848-13.533,4.536 c-6.277,6.276-6.277,16.447-0.002,22.719l8.887,8.888L155.109,321.25c-10.64,10.64-12.548,32.802,0.466,45.817 c-0.01,0.009,0.215,0.25,0.623,0.672c-12.942,12.918-16.933,16.504-22.398,21.972c-6.266,6.266-13.761,5.021-17.553-5.521 c-5.529-15.364-14.781-41.077-62.624-54.306c-14.944-4.132-23.68-10.3-25.973-18.316c-4.55-15.964,13.627-40.368,20.341-47.641 c5.062-5.449,4.752-13.965-0.697-19.038c-5.449-5.066-13.977-4.754-19.039,0.697c-3.705,3.99-35.978,39.964-26.53,73.297 c2.08,7.353,5.889,13.799,11.405,19.312c7.765,7.76,18.896,13.672,33.31,17.653c34.398,9.508,39.511,23.722,44.454,37.463 c4.377,12.161,11.762,31.613,41.568,28.306c17.195-1.912,36.363-19.19,47.449-30.172c0.278,0.265,0.445,0.419,0.451,0.411 c13.019,13.017,35.178,11.106,45.817,0.467l156.152-142.479l8.884,8.882c6.27,6.273,16.442,6.277,22.726,0 C417.632,255.029,419.13,249.979,418.475,245.171z M281.999,265.682c-0.045-0.042-0.076-0.09-0.118-0.132 c-0.041-0.039-0.088-0.072-0.129-0.116c-7.889-7.89-6.643-21.93,2.778-31.354c9.434-9.428,23.47-10.671,31.356-2.778 c0.037,0.04,0.071,0.087,0.111,0.128c0.04,0.04,0.087,0.073,0.128,0.114c7.895,7.886,6.65,21.922-2.776,31.356 C303.926,272.319,289.886,273.566,281.999,265.682z M416.287,226.148c-14.167-14.221-72.036-73.656-94.567-96.23 c3.71-9.945,9.563-19.064,17.126-26.625c29.028-29.028,76.262-29.028,105.295,0c29.022,29.024,29.024,76.254-0.003,105.287 C436.257,216.461,426.706,222.472,416.287,226.148z"/> </g> </g>
<g id="SVGRepo_iconCarrier"> <g> <path d="M418.475,245.171c14.644-4.42,28.075-12.416,38.961-23.291c36.362-36.367,36.362-95.527,0-131.889 c-36.356-36.367-95.526-36.365-131.885,0c-10.877,10.872-18.902,24.328-23.316,38.962c-4.804-0.654-9.851,0.848-13.533,4.536 c-6.277,6.276-6.277,16.447-0.002,22.719l8.887,8.888L155.109,321.25c-10.64,10.64-12.548,32.802,0.466,45.817 c-0.01,0.009,0.215,0.25,0.623,0.672c-12.942,12.918-16.933,16.504-22.398,21.972c-6.266,6.266-13.761,5.021-17.553-5.521 c-5.529-15.364-14.781-41.077-62.624-54.306c-14.944-4.132-23.68-10.3-25.973-18.316c-4.55-15.964,13.627-40.368,20.341-47.641 c5.062-5.449,4.752-13.965-0.697-19.038c-5.449-5.066-13.977-4.754-19.039,0.697c-3.705,3.99-35.978,39.964-26.53,73.297 c2.08,7.353,5.889,13.799,11.405,19.312c7.765,7.76,18.896,13.672,33.31,17.653c34.398,9.508,39.511,23.722,44.454,37.463 c4.377,12.161,11.762,31.613,41.568,28.306c17.195-1.912,36.363-19.19,47.449-30.172c0.278,0.265,0.445,0.419,0.451,0.411 c13.019,13.017,35.178,11.106,45.817,0.467l156.152-142.479l8.884,8.882c6.27,6.273,16.442,6.277,22.726,0 C417.632,255.029,419.13,249.979,418.475,245.171z M281.999,265.682c-0.045-0.042-0.076-0.09-0.118-0.132 c-0.041-0.039-0.088-0.072-0.129-0.116c-7.889-7.89-6.643-21.93,2.778-31.354c9.434-9.428,23.47-10.671,31.356-2.778 c0.037,0.04,0.071,0.087,0.111,0.128c0.04,0.04,0.087,0.073,0.128,0.114c7.895,7.886,6.65,21.922-2.776,31.356 C303.926,272.319,289.886,273.566,281.999,265.682z M416.287,226.148c-14.167-14.221-72.036-73.656-94.567-96.23 c3.71-9.945,9.563-19.064,17.126-26.625c29.028-29.028,76.262-29.028,105.295,0c29.022,29.024,29.024,76.254-0.003,105.287 C436.257,216.461,426.706,222.472,416.287,226.148z"/> </g> </g>
</svg>